<?xml version="1.0" encoding="utf-8"?>
<!-- Generator: Adobe Illustrator 22.0.1, SVG Export Plug-In . SVG Version: 6.00 Build 0)  -->
<svg version="1.1" id="Layer_1" xmlns="http://www.w3.org/2000/svg" xmlns:xlink="http://www.w3.org/1999/xlink" x="0px" y="0px" width="57" height="57"
	 viewBox="0 0 78 100.9" style="enable-background:new 0 0 78 100.9;" xml:space="preserve">
<style type="text/css">
	.st0{fill:#FFFFFF;}
	.st1{fill:#F8C036;}
</style>
<g>
	<g>
		<g>
			<path class="st0" d="M39,74c-13,0-23.5-10.6-23.5-23.5c0-13,10.6-23.5,23.5-23.5c13,0,23.5,10.6,23.5,23.5C62.5,63.5,52,74,39,74
				z M39,29c-11.8,0-21.5,9.6-21.5,21.5c0,11.8,9.6,21.5,21.5,21.5s21.5-9.6,21.5-21.5C60.5,38.6,50.8,29,39,29z"/>
		</g>
		<g>
			<path class="st0" d="M25.1,55.1c-0.2,0-0.5-0.1-0.7-0.3c-3-2.6-3.5-3.2-3.6-3.4c-0.2-0.3-1.1-0.8-1.3-1c-0.7-0.3-3.1-3.3-3.3-4.9
				l2-0.3c0.1,0.9,1.8,3,2.3,3.4c0.4,0.2,1.7,1,2.1,1.8c0.2,0.3,1.1,1,2,1.9c0.1-0.3,0.2-0.6,0.2-0.8c-0.4-0.6-1.2-1.6-1.4-1.8l0,0
				c-0.4-0.3-1.3-1.7-1.2-2.6c0-0.5,0.3-0.9,0.7-1.1c0.6-0.4,1.7-0.3,2.9-0.1c0.1,0,0.2,0,0.3,0c0.3-0.2,1.1-0.8,1.2-1.3
				c0.4-1.3,2-3,3.7-3.7c1.3-0.6,1.8-0.7,2.4-0.8c0.4-0.6,1-2.3,0.8-2.7c-0.2-0.3-1-0.7-1.6-1c-1.1-0.6-2.1-1.1-2.4-2
				c-0.1-0.3-0.4-1.2,0-5.2l2.1,0.2c-0.3,2.8-0.2,4-0.1,4.2c0.1,0.2,1,0.7,1.5,0.9c0.9,0.5,1.8,1,2.3,1.7c1,1.5-0.3,4.1-0.4,4.4
				c-0.5,1.1-1.1,1.5-1.8,1.5c-0.5,0-0.6,0-1.9,0.6c-1.3,0.6-2.4,1.8-2.6,2.4c-0.4,1.2-2.1,2.8-3.1,2.8c-0.2,0-0.3,0-0.7-0.1
				c-0.2,0-0.6-0.1-0.9-0.1c0.1,0.1,0.2,0.3,0.2,0.3c0.5,0.4,1.7,2,1.8,2.2c0.2,0.3,0.7,1-0.6,4c-0.1,0.3-0.4,0.5-0.7,0.6
				C25.2,55.1,25.2,55.1,25.1,55.1z M22.7,50.5C22.7,50.5,22.7,50.5,22.7,50.5C22.7,50.5,22.7,50.5,22.7,50.5z M22.6,50.4L22.6,50.4
				L22.6,50.4z M20.4,48.6C20.4,48.6,20.4,48.6,20.4,48.6C20.4,48.6,20.4,48.6,20.4,48.6z M24.7,48.1C24.8,48.1,24.8,48.2,24.7,48.1
				C24.8,48.2,24.8,48.1,24.7,48.1z M26,46L26,46L26,46z"/>
		</g>
		<g>
			<path class="st0" d="M40.1,39.2c-0.3,0-0.6-0.1-0.9-0.2c-0.7-0.3-1.8-1.2-1.8-2.4c0-0.7,0-2.1-0.1-2.7c-0.4-0.4-0.7-0.9-0.7-1.9
				c0-0.4,0.2-0.8,0.6-1.1c1-0.9,3.3-0.7,4.3-0.6l0,0c0.5,0,2.4,0.2,3,0.6c0.5,0.3,0.8,0.8,1.1,1.4c0.1,0.2,0.3,0.5,0.4,0.7
				c0.3,0.4,0.4,1,0.3,1.6c-0.2,0.9-1.1,1.7-1.7,1.9c-0.3,0.1-0.7,0.2-1.2,0.3c-0.5,0.1-1.3,0.3-1.6,0.4c-0.1,0.1-0.3,0.5-0.3,0.7
				c-0.1,0.4-0.3,0.8-0.6,1.1C40.7,39.1,40.5,39.2,40.1,39.2z M39.4,36.5c0,0.1,0.1,0.2,0.3,0.3c0.2-0.5,0.5-1.2,1.2-1.5
				c0.6-0.3,1.4-0.5,2.2-0.7c0.3-0.1,0.7-0.1,0.8-0.2c0.1-0.1,0.3-0.3,0.4-0.5c-0.2-0.2-0.3-0.4-0.4-0.7c-0.1-0.2-0.4-0.6-0.5-0.7
				c-0.4-0.1-1.7-0.3-2-0.3l-0.1,0c-1-0.1-2.1-0.1-2.6,0.1c0,0,0,0,0,0c0.2,0.2,0.5,0.5,0.6,1.1C39.4,34.1,39.4,35.3,39.4,36.5z
				 M39.4,36.5"/>
		</g>
		<g>
			<path class="st0" d="M33,70.8c-0.1,0-0.2,0-0.3,0c-2.7-0.8-3-1.6-3.1-1.8c0-0.1-0.3-0.3-0.5-0.5c-0.6-0.5-1.3-1.2-1.3-2.1
				c0-0.5-0.5-2-0.7-2.8c0,0,0-0.1,0-0.1c-0.1-0.5-0.3-1.1-0.4-1.3c-0.6-0.3-2-1.1-2.3-2.1c-0.3-0.9-0.1-4,1.5-4.6
				c0.1,0,0.3-0.1,0.4-0.2c0.7-0.4,2.1-1.3,4,0c0.8,0.5,1,0.4,1.3,0.3c0.2-0.1,0.4-0.2,0.8-0.3c1.2-0.2,1.6,0.8,1.7,1.2
				c0,0.1,0.1,0.3,0.2,0.4c0.1,0.2,0.1,0.4,0.2,0.5c0,0,0.1,0,0.1,0c1.4,0,3.5,0.2,4.6,0.8c1.3,0.7,1.1,2.9,0.9,4.2
				c0,0.1,0,0.2-0.1,0.3c-0.1,0.2-1.1,2.2-2.8,2.8c-1,0.3-1.3,0.6-1.3,0.7c0,0.9-0.7,1.5-1.1,1.9c0,0-0.1,0.1-0.1,0.1
				c0,0.4-0.2,1-0.7,2.1C33.8,70.5,33.4,70.8,33,70.8z M31.4,67.9c0.2,0.1,0.5,0.3,1,0.5c0.1-0.3,0.1-0.5,0.2-0.6
				c-0.1-0.7,0.5-1.1,0.8-1.5c0.1-0.1,0.3-0.3,0.4-0.4c0.1-1.7,2-2.3,2.7-2.6c0.7-0.2,1.3-1.2,1.6-1.6c0.1-0.7,0.1-1.6,0-1.9
				c-0.7-0.3-2.2-0.5-3.5-0.5c-0.7,0-2,0-2.1-1.5c0-0.1,0-0.1,0-0.2c0-0.1-0.1-0.2-0.1-0.3c-0.8,0.3-1.7,0.5-3.2-0.5
				c-0.8-0.5-1.1-0.4-1.8,0c-0.2,0.1-0.4,0.3-0.7,0.4c-0.2,0.3-0.5,1.5-0.4,2c0.1,0.2,0.8,0.7,1.4,1c0.8,0.4,1.2,1.6,1.4,2.6
				c0.2,0.5,0.7,2.4,0.8,3.3c0,0.2,0.5,0.6,0.7,0.8C30.9,67.3,31.2,67.6,31.4,67.9z M31.4,68.1C31.4,68.1,31.4,68.1,31.4,68.1
				C31.4,68.1,31.4,68.1,31.4,68.1z M34.6,67.6C34.6,67.6,34.6,67.6,34.6,67.6C34.6,67.6,34.6,67.6,34.6,67.6z M26.6,57.3"/>
		</g>
		<g>
			<path class="st0" d="M55.1,66.5c-0.3-0.2-1.1-0.7-1.3-1.6c-0.1-0.5,0.1-0.9,0.4-1.3c0.2-0.2,0.2-0.6,0.3-1c0-0.2,0.1-0.5,0.1-0.7
				c0.1-0.3,0.3-0.6,0.6-1c0.2-0.2,0.4-0.7,0.5-0.8c0.1-0.3,0.4-1.3,0.6-2.1c-0.2,0.1-0.4,0.1-0.7,0.1c-0.1,0-0.4,0.2-0.5,0.3
				c-0.6,0.4-1.7,0.9-3,0.3c-1.6-0.9-2.8-1.7-3.3-2.5c-0.1-0.2-0.5-0.9-0.5-4.9c0-0.9,1.8-3.3,2.4-3.9c0.9-0.8,3.2-1.7,4-1.7
				c0.1,0,0.3-0.1,0.4-0.1c0.6-0.2,1.9-0.5,2.5,0.6c0.2,0.3,0.3,0.5,0.4,0.6c0.1,0,0.1,0,0.2-0.1c0.3-0.1,0.8-0.3,1.4-0.3
				c1.1,0,2.5,0.6,2.9,1.7l-2,0.7c0,0,0,0.1,0,0.1c-0.1-0.1-0.5-0.3-0.9-0.3c-0.2,0-0.4,0.1-0.6,0.2c-0.3,0.1-0.8,0.3-1.2,0.2
				c-0.9-0.1-1.4-0.8-1.7-1.3c-0.1,0-0.3,0.1-0.4,0.1c-0.3,0.1-0.6,0.2-0.9,0.2c-0.4,0-2.1,0.7-2.6,1.2c-0.5,0.5-1.5,2-1.8,2.5
				c0,2,0.1,3.4,0.3,3.7c0.1,0.2,0.7,0.7,2.5,1.7c0.2,0.1,0.4,0.1,0.9-0.3c0.4-0.2,0.8-0.5,1.4-0.5c0.1-0.3,0.3-0.7,0.9-0.8
				c1-0.3,1.8,0.7,2.2,1.3l0.3,0.4l-0.1,0.5c-0.2,0.8-0.8,2.8-0.9,3.3c-0.1,0.5-0.5,1-0.8,1.5c-0.1,0.2-0.3,0.4-0.3,0.5
				c0,0,0,0.1,0,0.3c-0.1,0.5-0.2,1.1-0.5,1.7c0,0,0.1,0.1,0.1,0.1L55.1,66.5z M58,47L58,47L58,47z"/>
		</g>
	</g>
	<g>
		<path class="st1" d="M8.8,42.5l-2-0.5C10.7,27.4,23.9,17.2,39,17.2v2.1C24.8,19.3,12.4,28.8,8.8,42.5z"/>
	</g>
	<g>
		<path class="st0" d="M30.2,82.6C15.8,78.7,5.7,65.5,5.7,50.5h2.1c0,14,9.5,26.4,23,30.1L30.2,82.6z"/>
	</g>
	<g>
		<path class="st0" d="M39,83.7v-2.1c14.1,0,26.5-9.5,30.1-23.1l2,0.5C67.3,73.6,54,83.7,39,83.7z"/>
	</g>
	<g>
		<path class="st0" d="M72.3,50.5h-2.1c0-14.2-9.6-26.7-23.4-30.2l0.5-2C62,22,72.3,35.3,72.3,50.5z"/>
	</g>
	<g>
		<polygon class="st1" points="36.6,22.1 35.1,20.7 37.5,18.2 35.1,15.8 36.6,14.3 40.5,18.2 		"/>
	</g>
	<g>
		<path class="st0" d="M41.2,86.6l-3.2-3.2c-0.4-0.4-0.4-1.1,0-1.5l3.2-3.2l1.5,1.5l-2.4,2.4l2.4,2.4L41.2,86.6z"/>
	</g>
	<g>
		<polygon class="st0" points="41.2,86.6 37.3,82.7 41.2,78.8 42.7,80.3 40.3,82.7 42.7,85.2 		"/>
	</g>
	<g>
		<polygon class="st0" points="71.2,53.5 67.3,49.6 68.8,48.1 71.2,50.6 73.7,48.1 75.1,49.6 		"/>
	</g>
	<g>
		<polygon class="st0" points="9.2,54.4 6.8,51.9 4.3,54.4 2.9,52.9 6.8,49 10.7,52.9 		"/>
	</g>
</g>
</svg>
