<?xml version="1.0" encoding="utf-8"?>
<!-- Generator: Adobe Illustrator 22.0.1, SVG Export Plug-In . SVG Version: 6.00 Build 0)  -->
<svg version="1.1" id="Layer_1" xmlns="http://www.w3.org/2000/svg" xmlns:xlink="http://www.w3.org/1999/xlink" x="0px" y="0px" width="57" height="57"
	 viewBox="0 0 78 100.9" style="enable-background:new 0 0 78 100.9;" xml:space="preserve">
<style type="text/css">
	.st0{fill:#F8C036;}
	.st1{fill:#FFFFFF;}
</style>
<g>
	<g>
		<path class="st0" d="M41.7,66L41.7,66l-5.5,0c-0.6,0-1-0.5-1-1v-2.3c-0.7-0.2-1.4-0.5-2.1-0.9l-1.6,1.6c-0.2,0.2-0.5,0.3-0.7,0.3
			l0,0c-0.3,0-0.5-0.1-0.7-0.3l-3.9-3.9c-0.4-0.4-0.4-1.1,0-1.5l1.6-1.6c-0.4-0.7-0.6-1.4-0.9-2.1h-2.3c-0.6,0-1-0.5-1-1v-5.5
			c0-0.6,0.5-1,1-1h2.3c0.2-0.7,0.5-1.4,0.9-2.1l-1.6-1.6c-0.4-0.4-0.4-1.1,0-1.5l3.9-3.9c0.4-0.4,1.1-0.4,1.5,0l1.6,1.6
			c0.7-0.4,1.4-0.7,2.1-0.9V36c0-0.6,0.5-1,1-1h5.5c0.6,0,1,0.5,1,1v2.3c0.7,0.2,1.4,0.5,2.1,0.9l1.6-1.6c0.4-0.4,1.1-0.4,1.5,0
			l3.9,3.9c0.4,0.4,0.4,1.1,0,1.5l-1.6,1.6c0.4,0.7,0.7,1.4,0.9,2.1h2.3c0.3,0,0.5,0.1,0.7,0.3c0.2,0.2,0.3,0.5,0.3,0.7l0,5.5
			c0,0.6-0.5,1-1,1h-2.3c-0.2,0.7-0.5,1.4-0.9,2.1l1.6,1.6c0.2,0.2,0.3,0.5,0.3,0.7c0,0.3-0.1,0.5-0.3,0.7L48,63.4
			c-0.4,0.4-1.1,0.4-1.5,0l-1.6-1.6c-0.7,0.4-1.4,0.7-2.1,0.9l0,2.3c0,0.3-0.1,0.5-0.3,0.7C42.2,65.9,42,66,41.7,66z M37.2,63.9
			l3.4,0l0-2.1c0-0.5,0.3-0.9,0.8-1c1.1-0.3,2.1-0.7,3-1.3c0.4-0.2,0.9-0.2,1.3,0.2l1.5,1.5l2.4-2.4l-1.5-1.5
			c-0.3-0.3-0.4-0.9-0.2-1.3c0.6-0.9,1-2,1.3-3c0.1-0.5,0.5-0.8,1-0.8h2.1l0-3.4h-2.1c-0.5,0-0.9-0.3-1-0.8c-0.3-1.1-0.7-2.1-1.3-3
			c-0.3-0.4-0.2-0.9,0.2-1.3l1.5-1.5l-2.4-2.4l-1.5,1.5c-0.3,0.3-0.9,0.4-1.3,0.2c-0.9-0.6-2-1-3-1.3c-0.5-0.1-0.8-0.5-0.8-1V37
			h-3.4v2.1c0,0.5-0.3,0.9-0.8,1c-1.1,0.3-2.1,0.7-3,1.3c-0.4,0.2-0.9,0.2-1.3-0.2l-1.5-1.5l-2.4,2.4l1.5,1.5
			c0.3,0.3,0.4,0.9,0.2,1.3c-0.6,0.9-1,2-1.3,3c-0.1,0.5-0.5,0.8-1,0.8h-2.1v3.4h2.1c0.5,0,0.9,0.3,1,0.8c0.3,1.1,0.7,2.1,1.3,3
			c0.3,0.4,0.2,0.9-0.2,1.3l-1.5,1.5l2.4,2.4l1.5-1.5c0.3-0.3,0.9-0.4,1.3-0.2c0.9,0.6,2,1,3,1.3c0.5,0.1,0.8,0.5,0.8,1V63.9z"/>
	</g>
	<g>
		<path class="st1" d="M39,56.6c-3.4,0-6.1-2.7-6.1-6.1c0-3.4,2.7-6.1,6.1-6.1c3.4,0,6.1,2.7,6.1,6.1C45.1,53.9,42.3,56.6,39,56.6z
			 M39,46.4c-2.2,0-4.1,1.8-4.1,4.1c0,2.2,1.8,4.1,4.1,4.1c2.2,0,4.1-1.8,4.1-4.1C43,48.2,41.2,46.4,39,46.4z"/>
	</g>
	<g>
		<path class="st1" d="M45.1,75.1l-0.5-2c2.2-0.5,4.3-1.4,6.2-2.5c0.8-0.5,1.7-1.1,2.5-1.7l1.3,1.6c-0.8,0.7-1.7,1.3-2.7,1.8
			C49.7,73.6,47.4,74.5,45.1,75.1z"/>
	</g>
	<g>
		<path class="st1" d="M24.7,32.1l-1.3-1.6c2.1-1.7,4.5-3,7-3.9l0.7,2C28.8,29.3,26.7,30.5,24.7,32.1z"/>
	</g>
	<g>
		<path class="st1" d="M39,80.8c-16.4,0-29.8-13.1-30.3-29.3H7.4c-0.4,0-0.8-0.2-0.9-0.6c-0.2-0.4-0.1-0.8,0.1-1.1l4.8-6.5
			c0.4-0.5,1.3-0.5,1.7,0l4.8,6.5c0.2,0.3,0.3,0.7,0.1,1.1c-0.2,0.4-0.5,0.6-0.9,0.6h-1.3C16.2,63.9,26.5,73.8,39,73.8v2.1
			c-14,0-25.4-11.4-25.4-25.4c0-0.3,0.1-0.6,0.4-0.8c0.2-0.1,0.4-0.2,0.7-0.2h0.3l-2.8-3.7l-2.8,3.7h0.2c0.1,0,0.2,0,0.2,0
			c0.5,0.1,0.8,0.5,0.8,1c0,15.6,12.7,28.3,28.3,28.3c1.9,0,3.8-0.2,5.7-0.6l0.4,2C43.1,80.6,41,80.8,39,80.8z"/>
	</g>
	<g>
		<path class="st1" d="M48.9,79.2l-0.7-2c1.3-0.4,2.5-1,3.7-1.6l1,1.8C51.6,78.1,50.2,78.7,48.9,79.2z"/>
	</g>
	<g>
		<path class="st1" d="M55,76.3l-1.1-1.8c0.8-0.5,1.6-1,2.3-1.6l1.3,1.6C56.6,75.2,55.8,75.7,55,76.3z"/>
	</g>
	<g>
		<path class="st1" d="M65.8,58c-0.3,0-0.6-0.2-0.8-0.4l-4.8-6.5c-0.2-0.3-0.3-0.7-0.1-1.1c0.2-0.4,0.5-0.6,0.9-0.6h1.2
			C61.7,37.1,51.5,27.2,39,27.2v-2.1c14,0,25.4,11.4,25.4,25.4c0,0.5-0.4,0.9-0.9,1c-0.1,0-0.1,0-0.2,0h-0.2l2.8,3.7l2.8-3.7h-0.3
			c-0.1,0-0.2,0-0.4-0.1c-0.4-0.1-0.7-0.5-0.7-1c0-14.1-10.5-26.1-24.4-28l0.3-2.1c14.6,2,25.7,14.4,26.2,29h1.3
			c0.4,0,0.8,0.2,0.9,0.6c0.2,0.4,0.1,0.8-0.1,1.1l-4.8,6.5C66.5,57.8,66.1,58,65.8,58z"/>
	</g>
	<g>
		<path class="st1" d="M33.3,22.8l-0.4-2c2-0.4,4.1-0.6,6.1-0.6v2.1C37,22.2,35.1,22.4,33.3,22.8z"/>
	</g>
	<g>
		<path class="st1" d="M24.6,26.1l-1.1-1.8c1.4-0.8,2.9-1.5,4.4-2.1l0.8,1.9C27.2,24.7,25.8,25.4,24.6,26.1z"/>
	</g>
</g>
</svg>
