<?xml version="1.0" encoding="utf-8"?>
<!-- Generator: Adobe Illustrator 22.0.1, SVG Export Plug-In . SVG Version: 6.00 Build 0)  -->
<svg version="1.1" id="Layer_1" xmlns="http://www.w3.org/2000/svg" xmlns:xlink="http://www.w3.org/1999/xlink" x="0px" y="0px" width="57" height="57"
	 viewBox="0 0 78 100.9" style="enable-background:new 0 0 78 100.9;" xml:space="preserve">
<style type="text/css">
	.st0{fill:#FFFFFF;}
	.st1{fill:#F8C036;}
</style>
<g>
	<g>
		<g>
			<path class="st0" d="M34.3,74.2c-9.6,0-18.2-5.7-21.9-14.5l1.9-0.8c3.4,8.1,11.2,13.3,20,13.3c5,0,9.6-1.6,13.5-4.7l1.3,1.6
				C44.9,72.4,39.7,74.2,34.3,74.2z"/>
		</g>
		<g>
			<path class="st0" d="M14,70.8c-5.4-5.4-8.4-12.7-8.4-20.3c0-15.9,12.9-28.7,28.7-28.7c9.3,0,17.9,4.5,23.3,12l1.2-0.7
				c0.4-0.2,0.8-0.2,1.1,0.1c0.3,0.2,0.5,0.6,0.4,1L59,41.3c-0.1,0.3-0.2,0.6-0.5,0.7c-0.3,0.2-0.6,0.2-0.9,0.1l-7-2.4
				c-0.4-0.1-0.7-0.5-0.7-0.9c0-0.4,0.2-0.8,0.5-1l1-0.6c-4.1-5.3-10.4-8.4-17.2-8.4c-11.9,0-21.7,9.7-21.7,21.7h-2.1
				c0-13.1,10.7-23.7,23.7-23.7c7.7,0,15,3.8,19.4,10.1c0,0,0.1,0.1,0.1,0.2c0.3,0.5,0.2,1.1-0.2,1.4c0,0-0.1,0.1-0.1,0.1l3.7,1.3
				l0.7-3.8l-0.1,0c-0.5,0.3-1.1,0.1-1.4-0.3l-0.1-0.1c-5-7.4-13.3-11.8-22.1-11.8c-14.7,0-26.7,12-26.7,26.7
				c0,7.1,2.8,13.8,7.8,18.9L14,70.8z"/>
		</g>
		<g>
			<path class="st0" d="M34.3,79.2c-3.2,0-6.3-0.5-9.3-1.5c-2.2-0.8-4.3-1.8-6.3-3.1l1.1-1.7c1.8,1.2,3.8,2.1,5.8,2.8
				c2.8,1,5.7,1.4,8.7,1.4V79.2z"/>
		</g>
		<g>
			<path class="st1" d="M44.5,62.2l-11-11c-0.1-0.1-0.2-0.3-0.3-0.5l-2.1-7.8l2-0.5l2,7.5L46,60.7L44.5,62.2z"/>
		</g>
	</g>
	<g>
		<path class="st0" d="M61.7,73.9l-0.8-1.8c6.3-3,6.2-7.7,6.2-7.9l2-0.1C69,64.3,69.3,70.3,61.7,73.9z"/>
	</g>
	<g>
		<path class="st0" d="M61.2,78c-0.1,0-0.3,0-0.4-0.1C49.9,72.8,50,64.2,50,63.5V54c0-0.3,0.2-0.6,0.4-0.8c0.3-0.2,0.6-0.2,0.9-0.1
			c1.1,0.5,2.6,0.7,4.1,0.7c2.1,0,4.1-0.5,5.2-1.3c0.3-0.3,0.8-0.3,1.2,0c1.1,0.8,3.1,1.3,5.2,1.3c1.5,0,2.9-0.3,4.1-0.7
			c0.3-0.1,0.7-0.1,0.9,0.1c0.3,0.2,0.4,0.5,0.4,0.8v9.5c0,0.7,0.2,9.3-10.8,14.4C61.5,78,61.4,78,61.2,78z M52,55.4v8.2
			c0,0,0,0,0,0.1c0,0.3-0.3,7.6,9.2,12.3c9.5-4.7,9.2-12,9.2-12.3c0,0,0,0,0-0.1v-8.2c-1.1,0.3-2.2,0.4-3.4,0.4
			c-2.2,0-4.3-0.5-5.8-1.3c-1.5,0.8-3.6,1.3-5.8,1.3C54.3,55.8,53.1,55.6,52,55.4z"/>
	</g>
</g>
</svg>
