<?xml version="1.0" encoding="utf-8"?>
<!-- Generator: Adobe Illustrator 22.0.1, SVG Export Plug-In . SVG Version: 6.00 Build 0)  -->
<svg version="1.1" id="Layer_1" xmlns="http://www.w3.org/2000/svg" xmlns:xlink="http://www.w3.org/1999/xlink" x="0px" y="0px" width="57" height="57"
	 viewBox="0 0 78 100.9" style="enable-background:new 0 0 78 100.9;" xml:space="preserve">
<style type="text/css">
	.st0{fill:#FFFFFF;}
	.st1{fill:#F8C036;}
</style>
<g>
	<g>
		<path class="st0" d="M53.8,45.7h-2.1c0-0.8-0.1-1.6-0.2-2.5l2.1-0.3C53.7,43.8,53.8,44.8,53.8,45.7z"/>
	</g>
	<g>
		<path class="st0" d="M51.2,41.3c-0.4-1.3-0.9-2.6-1.6-3.9l1.8-1c0.8,1.4,1.4,2.8,1.8,4.3L51.2,41.3z"/>
	</g>
	<g>
		<path class="st0" d="M48.2,35.4c-3.2-4.1-8-6.4-13.2-6.4v-2.1c5.8,0,11.3,2.6,14.8,7.2L48.2,35.4z"/>
	</g>
	<g>
		
			<rect x="51.7" y="61.3" transform="matrix(0.7071 -0.7071 0.7071 0.7071 -30.353 56.3002)" class="st0" width="2.1" height="6.9"/>
	</g>
	<g>
		<path class="st0" d="M61.9,78.7c-0.3,0-0.5-0.1-0.7-0.3l-8.5-8.5c-0.4-0.4-0.4-1.1,0-1.5l3.8-3.8c0.4-0.4,1.1-0.4,1.5,0l8.5,8.5
			c0.4,0.4,0.4,1.1,0,1.5l-3.8,3.8C62.4,78.6,62.2,78.7,61.9,78.7z M54.8,69.1l7.1,7.1l2.3-2.3l-7.1-7.1L54.8,69.1z"/>
	</g>
	<g>
		<path class="st1" d="M29.5,55.4c-0.2,0-0.4-0.1-0.6-0.2c-0.3-0.2-0.5-0.6-0.4-1l1-5.6l-4-3.9c-0.3-0.3-0.4-0.7-0.3-1.1
			c0.1-0.4,0.4-0.6,0.8-0.7l5.6-0.8L34,37c0.2-0.4,0.5-0.6,0.9-0.6s0.8,0.2,0.9,0.6l2.5,5.1l5.6,0.8c0.4,0.1,0.7,0.3,0.8,0.7
			c0.1,0.4,0,0.8-0.3,1.1l-4,3.9l1,5.6c0.1,0.4-0.1,0.8-0.4,1c-0.3,0.2-0.7,0.3-1.1,0.1l-5-2.6l-5,2.6
			C29.8,55.3,29.7,55.4,29.5,55.4z M28.4,44.6l2.9,2.8c0.2,0.2,0.4,0.6,0.3,0.9l-0.7,4l3.6-1.9c0.3-0.2,0.7-0.2,1,0l3.6,1.9l-0.7-4
			c-0.1-0.3,0.1-0.7,0.3-0.9l2.9-2.8l-4-0.6c-0.3,0-0.6-0.3-0.8-0.6L35,39.8l-1.8,3.7c-0.2,0.3-0.4,0.5-0.8,0.6L28.4,44.6z"/>
	</g>
	<g>
		<path class="st0" d="M35,69.6c-13.1,0-23.7-10.6-23.7-23.7c0-13.1,10.6-23.7,23.7-23.7c13.1,0,23.7,10.6,23.7,23.7
			C58.7,59,48,69.6,35,69.6z M35,24.3c-11.9,0-21.6,9.7-21.6,21.6S23.1,67.5,35,67.5s21.6-9.7,21.6-21.6S46.9,24.3,35,24.3z"/>
	</g>
</g>
</svg>
