<?xml version="1.0" encoding="utf-8"?>
<!-- Generator: Adobe Illustrator 22.0.1, SVG Export Plug-In . SVG Version: 6.00 Build 0)  -->
<svg version="1.1" id="Layer_1" xmlns="http://www.w3.org/2000/svg" xmlns:xlink="http://www.w3.org/1999/xlink" x="0px" y="0px" width="57" height="57"
	 viewBox="0 0 78 100.9" style="enable-background:new 0 0 78 100.9;" xml:space="preserve">
<style type="text/css">
	.st0{fill:#FFFFFF;}
	.st1{fill:#F8C036;}
</style>
<g>
	<g>
		<g>
			<g>
				<path class="st0" d="M62.3,55.7l-7.2-0.3c-0.2,0-0.4-0.1-0.6-0.2l-14-10l-2.4,2.3c0,0-0.1,0.1-0.2,0.1l-1.4,0.9
					c-2.1,1.4-4.2,1.3-5.4-0.3c-1.1-1.5-0.9-2.3-0.4-4.3l0.2-0.7c0.7-2.8,6-5.9,7.1-6.5c0.2-0.1,0.4-0.1,0.6-0.1L53,37.6l3.2-1.5
					l0.9,1.9l-3.4,1.6c-0.2,0.1-0.3,0.1-0.5,0.1l-14.3-0.8c-2.3,1.3-5.5,3.7-5.8,5.1l-0.2,0.7c-0.5,1.8-0.5,1.8,0,2.5
					c0.7,0.9,2.2-0.1,2.5-0.3l1.3-0.9l2.9-2.9c0.4-0.4,0.9-0.4,1.3-0.1l14.4,10.3l6.9,0.3L62.3,55.7z"/>
			</g>
		</g>
		<g>
			<g>
				<path class="st0" d="M63.1,58.5c-0.2,0-0.3,0-0.5-0.1c-0.2-0.1-0.4-0.3-0.5-0.6l-7.2-22.9c-0.2-0.5,0.1-1.1,0.7-1.3l7.7-2.6
					c0.3-0.1,0.6-0.1,0.8,0.1c0.2,0.1,0.4,0.3,0.5,0.6l7.2,22.9c0.2,0.5-0.1,1.1-0.7,1.3l-7.7,2.6C63.3,58.5,63.2,58.5,63.1,58.5z
					 M57.2,35.2l6.6,20.9l5.7-2l-6.6-20.9L57.2,35.2z"/>
			</g>
		</g>
		<g>
			<g>
				<path class="st0" d="M13.9,55.5c-0.2,0-0.4-0.1-0.6-0.2l-6.7-4.6c-0.2-0.2-0.4-0.4-0.4-0.7c0-0.3,0-0.6,0.2-0.8l14.2-19.3
					c0.3-0.5,1-0.6,1.4-0.2l6.7,4.6c0.2,0.2,0.4,0.4,0.4,0.7c0,0.3,0,0.6-0.2,0.8L14.7,55C14.5,55.3,14.2,55.5,13.9,55.5z M8.7,49.5
					l4.9,3.4l13-17.7l-4.9-3.4L8.7,49.5z"/>
			</g>
		</g>
		<g>
			<g>
				<path class="st0" d="M36.5,40.2L29.8,40c-0.2,0-0.4-0.1-0.5-0.2l-3.1-1.9l1.1-1.8l2.8,1.8l6.5,0.1L36.5,40.2z"/>
			</g>
		</g>
		<g>
			<g>
				<path class="st0" d="M19.7,57.9l-2-4.3l-2.2-1.1l1-1.8l2.5,1.3c0.2,0.1,0.4,0.3,0.5,0.5l2.1,4.6L19.7,57.9z"/>
			</g>
		</g>
		<g>
			<g>
				<path class="st0" d="M21.1,64.2c-0.7,0-1.4-0.2-2-0.6c-1.6-1.1-2-3.3-0.9-4.9l2.6-3.8c1.1-1.6,3.3-2,4.9-0.9
					c1.6,1.1,2,3.3,0.9,4.9L24,62.7c-0.5,0.8-1.3,1.3-2.3,1.5C21.5,64.2,21.3,64.2,21.1,64.2z M23.7,55.5c-0.5,0-0.9,0.2-1.2,0.6
					l-2.6,3.8c-0.2,0.3-0.3,0.7-0.2,1.1c0.1,0.4,0.3,0.7,0.6,0.9c0.7,0.5,1.5,0.3,2-0.4l2.6-3.8c0.2-0.3,0.3-0.7,0.2-1.1
					c-0.1-0.4-0.3-0.7-0.6-0.9C24.3,55.6,24,55.5,23.7,55.5z"/>
			</g>
		</g>
		<g>
			<g>
				<path class="st0" d="M29.2,69.9c-0.7,0-1.4-0.2-2-0.6c-1.6-1.1-2-3.3-0.9-4.9l2.6-3.8c1.1-1.6,3.3-2,4.9-0.9
					c1.6,1.1,2,3.3,0.9,4.9l-2.6,3.8C31.4,69.4,30.3,69.9,29.2,69.9z M31.8,61.2c-0.5,0-0.9,0.2-1.2,0.6L28,65.6
					c-0.2,0.3-0.3,0.7-0.2,1.1c0.1,0.4,0.3,0.7,0.6,0.9c0.7,0.5,1.5,0.3,2-0.4l2.6-3.8c0.5-0.7,0.3-1.5-0.4-2
					C32.4,61.2,32.1,61.2,31.8,61.2z"/>
			</g>
		</g>
		<g>
			<g>
				<path class="st0" d="M24.6,68c-0.7,0-1.4-0.2-2.1-0.7c-1.6-1.1-2-3.2-1-4.7l4.1-6c1-1.5,3.2-1.8,4.8-0.7c1.6,1.1,2,3.2,1,4.7
					l-4.1,6C26.7,67.5,25.7,68,24.6,68z M28.3,57.4c-0.4,0-0.8,0.2-1,0.5l-4.1,6c-0.4,0.5-0.2,1.4,0.5,1.8c0.7,0.5,1.5,0.4,1.9-0.2
					l4.1-6c0.4-0.5,0.2-1.4-0.5-1.8C28.9,57.5,28.6,57.4,28.3,57.4z"/>
			</g>
		</g>
		<g>
			<g>
				<path class="st0" d="M34.1,71.5c-0.7,0-1.4-0.2-2-0.6c-1.6-1.1-2-3.3-0.9-4.9l1-1.5c1.1-1.6,3.3-2,4.9-0.9
					c1.6,1.1,2,3.3,0.9,4.9L37,70C36.3,71,35.2,71.5,34.1,71.5z M35.1,65.1c-0.5,0-0.9,0.2-1.2,0.6l-1,1.5c-0.5,0.7-0.3,1.5,0.4,2
					c0.7,0.5,1.5,0.3,2-0.4l1-1.5c0.5-0.7,0.3-1.5-0.4-2C35.7,65.2,35.4,65.1,35.1,65.1z"/>
			</g>
		</g>
		<g>
			<g>
				<path class="st0" d="M52,58.8c-0.7,0-1.5-0.2-2.1-0.7l-3.7-2.7l1.2-1.7l3.7,2.7c0.3,0.2,0.7,0.3,1.1,0.3
					c0.4-0.1,0.7-0.3,0.9-0.6c0.2-0.3,0.3-0.7,0.3-1.1c-0.1-0.4-0.3-0.7-0.6-0.9l-3.7-2.7l1.2-1.7l3.7,2.7c0.8,0.6,1.3,1.4,1.4,2.3
					c0.1,0.9-0.1,1.9-0.6,2.6c-0.6,0.8-1.4,1.3-2.3,1.4C52.3,58.7,52.1,58.8,52,58.8z"/>
			</g>
		</g>
		<g>
			<g>
				<path class="st0" d="M46.1,66.7c-0.7,0-1.5-0.2-2.1-0.7l-3.7-2.7l1.2-1.7l3.7,2.7c0.3,0.2,0.7,0.3,1.1,0.3
					c0.4-0.1,0.7-0.3,0.9-0.6c0.2-0.3,0.3-0.7,0.3-1.1c-0.1-0.4-0.3-0.7-0.6-0.9l-3.7-2.7l1.2-1.7l3.7,2.7c0.8,0.6,1.3,1.4,1.4,2.3
					c0.1,0.9-0.1,1.9-0.6,2.6c-0.6,0.8-1.4,1.3-2.3,1.4C46.5,66.7,46.3,66.7,46.1,66.7z"/>
			</g>
		</g>
		<g>
			<g>
				<path class="st0" d="M49.9,63.5c-0.7,0-1.3-0.2-1.9-0.6l-5.9-4.3l1.2-1.7l5.9,4.3c0.2,0.2,0.6,0.2,0.9,0.2
					c0.4-0.1,0.7-0.3,0.9-0.6c0.2-0.3,0.3-0.7,0.3-1.1c0-0.3-0.2-0.6-0.4-0.8l-5.8-4.2l1.2-1.7l5.8,4.2c0.7,0.5,1.2,1.3,1.3,2.3
					c0.1,0.9-0.2,1.8-0.7,2.5c-0.5,0.7-1.3,1.2-2.2,1.4C50.4,63.4,50.1,63.5,49.9,63.5z"/>
			</g>
		</g>
		<g>
			<g>
				<path class="st0" d="M42.1,69.9c-0.7,0-1.4-0.2-2.1-0.7l-1.4-1l1.2-1.7l1.4,1c0.6,0.5,1.5,0.3,2-0.3c0.5-0.6,0.3-1.5-0.3-2
					l-1.4-1l1.2-1.7l1.4,1c1.6,1.1,1.9,3.3,0.8,4.9C44.2,69.4,43.1,69.9,42.1,69.9z"/>
			</g>
		</g>
		<g>
			<g>
				
					<rect x="38.4" y="65.2" transform="matrix(0.5878 -0.809 0.809 0.5878 -38.3876 59.7113)" class="st0" width="2.1" height="4.6"/>
			</g>
		</g>
		<g>
			<g>
				<path class="st1" d="M17.7,44.7c-0.3,0-0.5-0.1-0.7-0.3c-0.2-0.2-0.3-0.5-0.3-0.7c0-0.3,0.1-0.5,0.3-0.7c0.4-0.4,1.1-0.4,1.5,0
					c0.2,0.2,0.3,0.5,0.3,0.7c0,0.3-0.1,0.5-0.3,0.7C18.2,44.6,17.9,44.7,17.7,44.7z"/>
			</g>
		</g>
		<g>
			<g>
				<path class="st1" d="M12.5,51.7c-0.2,0-0.4-0.1-0.6-0.2c-0.5-0.3-0.6-1-0.2-1.5l3.7-5c0.3-0.5,1-0.6,1.5-0.2
					c0.5,0.3,0.6,1,0.2,1.5l-3.7,5C13.1,51.6,12.8,51.7,12.5,51.7z"/>
			</g>
		</g>
		<g>
			<g>
				<path class="st1" d="M63.9,45.7c-0.3,0-0.5-0.1-0.7-0.3c-0.1,0-0.1-0.1-0.1-0.2c0-0.1-0.1-0.1-0.1-0.2c0-0.1,0-0.1-0.1-0.2
					c0-0.1,0-0.1,0-0.2c0-0.3,0.1-0.5,0.3-0.7c0,0,0.1-0.1,0.2-0.1c0.1,0,0.1-0.1,0.2-0.1c0.1,0,0.1,0,0.2-0.1c0.1,0,0.3,0,0.4,0
					c0.1,0,0.1,0,0.2,0.1c0.1,0,0.1,0.1,0.2,0.1c0.1,0,0.1,0.1,0.2,0.1c0.2,0.2,0.3,0.5,0.3,0.7c0,0.1,0,0.1,0,0.2
					c0,0.1,0,0.1-0.1,0.2c0,0.1-0.1,0.1-0.1,0.2c0,0.1-0.1,0.1-0.1,0.2c0,0-0.1,0.1-0.2,0.1c-0.1,0-0.1,0.1-0.2,0.1
					c-0.1,0-0.1,0-0.2,0.1C64,45.7,64,45.7,63.9,45.7z"/>
			</g>
		</g>
		<g>
			<g>
				<path class="st1" d="M63.1,42.9c-0.4,0-0.8-0.3-1-0.7L60,35.7c-0.2-0.5,0.1-1.1,0.7-1.3c0.5-0.2,1.1,0.1,1.3,0.7l2.1,6.6
					c0.2,0.5-0.1,1.1-0.7,1.3C63.3,42.9,63.2,42.9,63.1,42.9z"/>
			</g>
		</g>
	</g>
	<g>
		<path class="st0" d="M12.3,69.2c-1.7-2.5-3-5.2-3.9-8.1l1.7-0.5c0.9,2.7,2.1,5.3,3.7,7.7L12.3,69.2z"/>
	</g>
	<g>
		<path class="st0" d="M38.9,83.5c-6,0-11.9-1.7-17-4.9l1-1.5c4.8,3,10.4,4.6,16.1,4.6c10.5,0,20.1-5.3,25.7-14.2l1.5,1
			C60.2,77.8,50.1,83.5,38.9,83.5z"/>
	</g>
	<g>
		<path class="st0" d="M58.1,26.4c-5.6-4.6-12.6-7.1-19.8-7.1c-1.6,0-3.2,0.1-4.8,0.4l-0.3-1.8c1.7-0.3,3.4-0.4,5.1-0.4
			c7.6,0,15.1,2.7,21,7.5L58.1,26.4z"/>
	</g>
	<g>
		<path class="st0" d="M22,23.9l-0.9-1.5c1.4-0.8,2.8-1.6,4.3-2.2l0.7,1.7C24.7,22.4,23.3,23.1,22,23.9z"/>
	</g>
</g>
</svg>
