<?xml version="1.0" encoding="utf-8"?>
<!-- Generator: Adobe Illustrator 22.0.1, SVG Export Plug-In . SVG Version: 6.00 Build 0)  -->
<svg version="1.1" id="Layer_1" xmlns="http://www.w3.org/2000/svg" xmlns:xlink="http://www.w3.org/1999/xlink" x="0px" y="0px" width="57" height="57"
	 viewBox="0 0 78 100.9" style="enable-background:new 0 0 78 100.9;" xml:space="preserve">
<style type="text/css">
	.st0{fill:#FFFFFF;}
	.st1{fill:#F8C036;}
</style>
<g>
	<g>
		<g>
			<g>
				<polygon class="st0" points="33.8,44.7 30,40.9 31.5,39.4 33.8,41.7 40.8,34.8 42.3,36.2 				"/>
			</g>
		</g>
		<g>
			<g>
				<path class="st0" d="M58.5,41h-2.1V24.7H18.5v-2.1h38.9c0.6,0,1,0.5,1,1V41z"/>
			</g>
		</g>
		<g>
			<g>
				<path class="st0" d="M33.6,48.3c-4.2,0-7.6-3.4-7.6-7.6c0-4.2,3.4-7.6,7.6-7.6c1.4,0,2.8,0.4,4,1.1l-1.1,1.8
					c-0.9-0.5-1.9-0.8-2.9-0.8c-3.1,0-5.5,2.5-5.5,5.5c0,3.1,2.5,5.5,5.5,5.5c3.1,0,5.5-2.5,5.5-5.5c0-0.2,0-0.4,0-0.5l2.1-0.2
					c0,0.2,0,0.5,0,0.7C41.2,44.8,37.8,48.3,33.6,48.3z"/>
			</g>
		</g>
		<g>
			<g>
				<rect x="19.8" y="51.6" class="st0" width="10.9" height="2.1"/>
			</g>
		</g>
		<g>
			<g>
				<rect x="19.8" y="57.6" class="st0" width="24.6" height="2.1"/>
			</g>
		</g>
		<g>
			<g>
				<rect x="19.8" y="63.6" class="st0" width="24.6" height="2.1"/>
			</g>
		</g>
		<g>
			<g>
				<rect x="19.8" y="69.7" class="st0" width="21.7" height="2.1"/>
			</g>
		</g>
		<g>
			<path class="st0" d="M52,71.2v5H15.2V29H52v21.3h2.1V28c0-0.6-0.5-1-1-1H14.1c-0.6,0-1,0.5-1,1v49.3c0,0.6,0.5,1,1,1h38.9
				c0.6,0,1-0.5,1-1v-6H52z"/>
		</g>
	</g>
	<g>
		<g>
			<g>
				<path class="st1" d="M48.1,70.6l-0.9-4.7l10.7-20l5,2.7L52.1,68.9L48.1,70.6z M49.2,66.2l0.3,1.7l1.3-0.5l9.6-17.9l-1.7-0.9
					L49.2,66.2z"/>
			</g>
		</g>
		<g>
			<path class="st0" d="M62,50.3l-5-2.7l2.9-5.3l5,2.7L62,50.3z M59.6,46.9l1.7,0.9l1.1-2l-1.7-0.9L59.6,46.9z"/>
		</g>
	</g>
</g>
</svg>
