<?xml version="1.0" encoding="utf-8"?>
<!-- Generator: Adobe Illustrator 22.0.1, SVG Export Plug-In . SVG Version: 6.00 Build 0)  -->
<svg version="1.1" id="Layer_1" xmlns="http://www.w3.org/2000/svg" xmlns:xlink="http://www.w3.org/1999/xlink" x="0px" y="0px" width="57" height="57"
	 viewBox="0 0 78 100.9" style="enable-background:new 0 0 78 100.9;" xml:space="preserve">
<style type="text/css">
	.st0{fill:#FFFFFF;}
	.st1{fill:#F8C036;}
</style>
<g>
	<g>
		<g>
			<g>
				<g>
					<g>
						<path class="st0" d="M39.3,73c-13.1,0-23.7-10.7-23.7-23.7c0-13.1,10.7-23.7,23.7-23.7S63,36.2,63,49.3
							C63,62.4,52.4,73,39.3,73z M39.3,27.6c-11.9,0-21.7,9.7-21.7,21.7c0,11.9,9.7,21.7,21.7,21.7C51.2,71,61,61.2,61,49.3
							C61,37.3,51.2,27.6,39.3,27.6z"/>
					</g>
				</g>
				<g>
					<g>
						<path class="st0" d="M25.2,54c-0.2,0-0.5-0.1-0.7-0.3c-3-2.6-3.5-3.2-3.6-3.5c-0.2-0.3-1.1-0.9-1.4-1
							c-0.7-0.3-3.1-3.3-3.4-4.9l2-0.3c0.1,0.9,1.9,3,2.4,3.5c0.4,0.2,1.7,1,2.1,1.8c0.2,0.3,1.1,1.1,2,1.9c0.1-0.3,0.2-0.6,0.2-0.8
							c-0.4-0.6-1.3-1.6-1.4-1.8l0,0c-0.4-0.3-1.3-1.7-1.2-2.6c0-0.5,0.3-0.9,0.7-1.1c0.6-0.4,1.7-0.3,2.9-0.1c0.1,0,0.2,0,0.3,0
							c0.4-0.2,1.1-0.9,1.2-1.3c0.4-1.3,2.1-3,3.7-3.8c1.3-0.6,1.8-0.7,2.4-0.8c0.5-0.6,1-2.3,0.8-2.8c-0.2-0.3-1-0.7-1.6-1
							c-1.1-0.6-2.1-1.1-2.4-2c-0.1-0.3-0.4-1.2,0-5.2l2.1,0.2c-0.3,2.8-0.2,4-0.1,4.3c0.1,0.2,1,0.7,1.5,0.9c0.9,0.5,1.8,1,2.3,1.7
							c1,1.5-0.3,4.2-0.4,4.5C35.2,40.5,34.6,41,34,41c-0.5,0-0.6,0-1.9,0.6c-1.3,0.6-2.4,1.9-2.6,2.5c-0.4,1.2-2.1,2.8-3.1,2.8
							c-0.2,0-0.3,0-0.7-0.1c-0.2,0-0.6-0.1-1-0.1c0.1,0.1,0.2,0.3,0.2,0.3c0.5,0.4,1.7,2,1.8,2.3c0.2,0.3,0.7,1-0.6,4.1
							c-0.1,0.3-0.4,0.5-0.7,0.6C25.4,53.9,25.3,54,25.2,54z M20.5,47.4C20.5,47.4,20.5,47.4,20.5,47.4
							C20.6,47.4,20.5,47.4,20.5,47.4z M24.9,46.9C24.9,47,24.9,47,24.9,46.9C24.9,47,24.9,47,24.9,46.9z M24,46.7L24,46.7L24,46.7z
							"/>
					</g>
				</g>
				<g>
					<g>
						<path class="st0" d="M40.4,37.9c-0.3,0-0.6-0.1-0.9-0.2c-0.7-0.3-1.8-1.2-1.8-2.4c0-0.7,0-2.1-0.1-2.7
							c-0.4-0.4-0.7-0.9-0.7-1.9c0-0.4,0.2-0.8,0.6-1.1c1-0.9,3.4-0.7,4.3-0.6l0,0c0.5,0,2.4,0.2,3.1,0.6c0.5,0.3,0.8,0.8,1.1,1.4
							c0.1,0.2,0.3,0.5,0.4,0.7c0.3,0.4,0.4,1,0.3,1.6c-0.2,0.9-1.1,1.7-1.7,1.9c-0.3,0.1-0.7,0.2-1.2,0.3c-0.5,0.1-1.3,0.3-1.7,0.4
							c-0.1,0.1-0.3,0.5-0.3,0.7c-0.1,0.4-0.3,0.8-0.6,1.1C41,37.8,40.8,37.9,40.4,37.9z M39.7,35.3c0,0.1,0.1,0.2,0.3,0.3
							c0.2-0.5,0.5-1.2,1.2-1.6c0.6-0.3,1.5-0.5,2.2-0.7c0.3-0.1,0.7-0.1,0.8-0.2c0.1-0.1,0.3-0.3,0.4-0.5c-0.2-0.2-0.3-0.4-0.4-0.7
							c-0.1-0.2-0.4-0.6-0.5-0.7c-0.4-0.1-1.7-0.3-2-0.3l-0.1,0c-1-0.1-2.1-0.1-2.6,0.1c0,0,0,0,0,0c0,0,0,0,0,0
							c0.2,0.2,0.5,0.5,0.6,1.1C39.7,32.8,39.7,34,39.7,35.3z M39.7,35.2C39.7,35.2,39.7,35.2,39.7,35.2S39.7,35.2,39.7,35.2z"/>
					</g>
				</g>
				<g>
					<g>
						<path class="st0" d="M33.2,69.8c-0.1,0-0.2,0-0.3,0c-2.7-0.8-3.1-1.6-3.2-1.8c0-0.1-0.3-0.3-0.5-0.5c-0.6-0.5-1.3-1.2-1.3-2.1
							c0-0.5-0.5-2-0.7-2.9c0,0,0-0.1,0-0.1c-0.1-0.5-0.3-1.1-0.4-1.3c-0.6-0.3-2-1.1-2.3-2.1c-0.3-0.9-0.1-4,1.5-4.6
							c0.1,0,0.3-0.1,0.4-0.2c0.7-0.4,2.1-1.3,4,0c0.8,0.6,1.1,0.4,1.4,0.3c0.2-0.1,0.5-0.2,0.8-0.3c1.2-0.1,1.6,0.8,1.7,1.2
							c0,0.1,0.1,0.3,0.2,0.4c0.1,0.2,0.1,0.4,0.2,0.5c0,0,0.1,0,0.1,0c1.4,0,3.5,0.2,4.7,0.9c1.3,0.7,1.1,2.9,0.9,4.2
							c0,0.1,0,0.2-0.1,0.3c-0.1,0.2-1.1,2.2-2.9,2.8c-1,0.3-1.3,0.6-1.3,0.7c0,0.9-0.7,1.5-1.1,1.9c0,0-0.1,0.1-0.2,0.1
							c0,0.4-0.2,1-0.7,2.1C34,69.5,33.6,69.8,33.2,69.8z M31.6,66.9c0.2,0.1,0.5,0.3,1,0.5c0.1-0.3,0.2-0.5,0.2-0.6
							c-0.1-0.7,0.5-1.1,0.8-1.5c0.1-0.1,0.3-0.3,0.4-0.4c0.1-1.7,2-2.4,2.7-2.6c0.7-0.2,1.4-1.2,1.6-1.6c0.1-0.8,0.1-1.6,0-1.9
							c-0.7-0.3-2.2-0.6-3.6-0.6c-0.7,0-2,0-2.1-1.5c0-0.1,0-0.2,0-0.2c0-0.1-0.1-0.2-0.1-0.3c-0.8,0.3-1.8,0.5-3.2-0.5
							c-0.8-0.6-1.2-0.4-1.8,0c-0.2,0.1-0.4,0.3-0.7,0.4c-0.3,0.3-0.5,1.6-0.4,2c0.1,0.2,0.8,0.7,1.4,1c0.8,0.4,1.2,1.6,1.4,2.7
							c0.2,0.5,0.8,2.4,0.8,3.3c0,0.2,0.5,0.6,0.7,0.8C31.1,66.2,31.4,66.6,31.6,66.9z M32.8,66.8L32.8,66.8L32.8,66.8z M34.8,66.6
							C34.8,66.6,34.8,66.6,34.8,66.6C34.8,66.6,34.8,66.6,34.8,66.6z M26.9,61C26.9,61,26.9,61,26.9,61C26.9,61,26.9,61,26.9,61z"
							/>
					</g>
				</g>
				<g>
					<g>
						<path class="st0" d="M55.5,65.5c-0.3-0.2-1.1-0.7-1.3-1.6c-0.1-0.5,0.1-0.9,0.4-1.3c0.2-0.2,0.2-0.6,0.3-1
							c0-0.2,0.1-0.5,0.1-0.7c0.1-0.3,0.3-0.6,0.6-1c0.2-0.2,0.4-0.7,0.5-0.8c0.1-0.3,0.4-1.3,0.6-2.2c-0.2,0.1-0.4,0.1-0.7,0.1
							c-0.1,0-0.4,0.2-0.5,0.3c-0.6,0.4-1.7,1-3,0.3c-1.6-0.9-2.8-1.7-3.3-2.5c-0.1-0.2-0.5-0.9-0.5-4.9c0-0.9,1.9-3.3,2.5-3.9
							c0.9-0.8,3.2-1.7,4.1-1.7c0.1,0,0.3-0.1,0.4-0.1c0.6-0.2,1.9-0.5,2.5,0.6c0.2,0.3,0.3,0.5,0.4,0.6c0.1,0,0.1-0.1,0.2-0.1
							c0.3-0.1,0.8-0.3,1.4-0.3c1.1,0,2.5,0.6,2.9,1.7l-2,0.7c0,0,0,0.1,0,0.1c-0.1-0.1-0.5-0.3-1-0.3c-0.2,0-0.4,0.1-0.6,0.2
							c-0.3,0.1-0.8,0.3-1.3,0.2c-0.9-0.1-1.4-0.8-1.7-1.4c-0.1,0-0.3,0.1-0.4,0.1c-0.3,0.1-0.6,0.2-0.9,0.2c-0.4,0-2.1,0.7-2.7,1.2
							c-0.5,0.5-1.5,2-1.8,2.5c0,2,0.1,3.4,0.3,3.7c0.1,0.2,0.7,0.7,2.5,1.7c0.2,0.1,0.4,0.1,1-0.3c0.4-0.2,0.9-0.5,1.4-0.5
							c0.1-0.3,0.3-0.7,0.9-0.8c1-0.3,1.8,0.7,2.2,1.3l0.3,0.4l-0.1,0.5c-0.2,0.8-0.8,2.9-0.9,3.3c-0.1,0.5-0.5,1-0.8,1.5
							c-0.1,0.2-0.3,0.5-0.3,0.5c0,0,0,0.1,0,0.3c-0.1,0.5-0.2,1.1-0.5,1.7c0,0,0.1,0.1,0.1,0.1L55.5,65.5z M50.7,50.5L50.7,50.5
							L50.7,50.5z"/>
					</g>
				</g>
			</g>
		</g>
		<g>
			<g>
				<g>
					<g>
						<path class="st1" d="M48.7,85.1c-1.4,0-2.8-0.7-3.6-2c-1.1-2-0.5-4.5,1.5-5.6l5.2-3.1l0.9,1.6L47.5,79
							c-1.1,0.6-1.5,2.1-0.8,3.2c0.6,1.1,2.1,1.5,3.2,0.8l5.2-3.1l0.9,1.6l-5.2,3.1C50.1,84.9,49.4,85.1,48.7,85.1z"/>
					</g>
				</g>
				<g>
					<g>
						<path class="st1" d="M58,80.3l-0.9-1.6l5.2-3.1c0.5-0.3,0.9-0.8,1.1-1.4c0.2-0.6,0.1-1.2-0.2-1.8c-0.3-0.5-0.8-0.9-1.4-1.1
							c-0.6-0.2-1.2-0.1-1.8,0.2l-5.2,3.1l-0.9-1.6l5.2-3.1c0.9-0.6,2.1-0.7,3.1-0.4c1.1,0.3,2,1,2.5,1.9c0.6,0.9,0.7,2.1,0.4,3.1
							c-0.3,1.1-1,2-1.9,2.5L58,80.3z"/>
					</g>
				</g>
			</g>
			<g>
				<g>
					
						<rect x="50.2" y="76.5" transform="matrix(0.8627 -0.5057 0.5057 0.8627 -31.5847 38.3839)" class="st1" width="9.5" height="1.8"/>
				</g>
			</g>
		</g>
		<g>
			<path class="st0" d="M40.5,78.8"/>
		</g>
	</g>
	<g>
		<path class="st0" d="M66.8,69.6l-1.5-1.1c4.1-5.6,6.3-12.3,6.3-19.2c0-18-14.6-32.6-32.6-32.6c-6.9,0-13.6,2.2-19.2,6.2l-1.1-1.5
			c5.9-4.3,12.9-6.6,20.2-6.6c19,0,34.4,15.4,34.4,34.4C73.4,56.7,71.1,63.7,66.8,69.6z"/>
	</g>
	<g>
		<path class="st0" d="M12.8,29.9l-1.4-1.1c1-1.4,2.2-2.7,3.4-4l1.3,1.3C14.9,27.4,13.8,28.6,12.8,29.9z"/>
	</g>
	<g>
		<path class="st0" d="M39,83.7c-19,0-34.4-15.4-34.4-34.4c0-2.6,0.3-5.2,0.9-7.7L7.3,42c-0.5,2.4-0.8,4.9-0.8,7.3
			c0,18,14.6,32.6,32.6,32.6c0.9,0,1.9,0,2.8-0.1l0.2,1.8C41,83.6,40,83.7,39,83.7z"/>
	</g>
</g>
</svg>
