<?xml version="1.0" encoding="utf-8"?>
<!-- Generator: Adobe Illustrator 22.0.1, SVG Export Plug-In . SVG Version: 6.00 Build 0)  -->
<svg version="1.1" id="Layer_1" xmlns="http://www.w3.org/2000/svg" xmlns:xlink="http://www.w3.org/1999/xlink" x="0px" y="0px" width="57" height="57"
	 viewBox="0 0 78 100.9" style="enable-background:new 0 0 78 100.9;" xml:space="preserve">
<style type="text/css">
	.st0{fill:#F8C036;}
	.st1{fill:#FFFFFF;}
</style>
<g>
	<g>
		<g>
			<g>
				<g>
					<path class="st0" d="M24.8,63.9l-1.5-1.5l14.6-14.8c0.2-0.2,0.5-0.3,0.7-0.3c0,0,0,0,0,0c0.3,0,0.5,0.1,0.7,0.3l5.9,5.9
						l21.9-22.1l1.5,1.5L46,55.7c-0.2,0.2-0.5,0.3-0.7,0.3c0,0,0,0,0,0c-0.3,0-0.5-0.1-0.7-0.3l-5.9-5.9L24.8,63.9z"/>
				</g>
			</g>
			<g>
				<g>
					<polygon class="st0" points="68.9,38.4 66.8,38.4 66.8,33.1 61.5,33.1 61.5,31.1 68.9,31.1 					"/>
				</g>
			</g>
		</g>
	</g>
	<g>
		<path class="st1" d="M65.2,75.5H29.1c-8.7,0-15.7-7-15.7-15.7V29.1h1.9v30.7c0,7.6,6.2,13.8,13.8,13.8h36.1V75.5z"/>
	</g>
	<g>
		<path class="st1" d="M67.9,78.1c-2,0-3.6-1.6-3.6-3.6c0-2,1.6-3.6,3.6-3.6c2,0,3.6,1.6,3.6,3.6C71.5,76.5,69.9,78.1,67.9,78.1z
			 M67.9,72.8c-0.9,0-1.7,0.8-1.7,1.7s0.8,1.7,1.7,1.7s1.7-0.8,1.7-1.7S68.8,72.8,67.9,72.8z"/>
	</g>
	<g>
		<path class="st1" d="M14.4,30c-2,0-3.6-1.6-3.6-3.6s1.6-3.6,3.6-3.6s3.6,1.6,3.6,3.6S16.3,30,14.4,30z M14.4,24.7
			c-0.9,0-1.7,0.8-1.7,1.7s0.8,1.7,1.7,1.7s1.7-0.8,1.7-1.7S15.3,24.7,14.4,24.7z"/>
	</g>
	<g>
		<rect x="6.6" y="32.3" class="st1" width="1.8" height="10.7"/>
	</g>
	<g>
		<rect x="6.6" y="46.3" class="st1" width="1.8" height="6.4"/>
	</g>
	<g>
		<rect x="6.6" y="55.1" class="st1" width="1.8" height="4.5"/>
	</g>
</g>
</svg>
